[PACKET]
codec_type=audio
stream_index=1
pts=-1024
pts_time=-0.021333
dts=-1024
dts_time=-0.021333
duration=1024
duration_time=0.021333
convergence_duration=N/A
convergence_duration_time=N/A
size=23
pos=48
flags=KD
[SIDE_DATA]
side_data_type=Skip Samples
skip_samples=1024
discard_padding=0
skip_reason=0
discard_reason=0
[/SIDE_DATA]
[/PACKET]
[PACKET]
codec_type=audio
stream_index=1
pts=0
pts_time=0.000000
dts=0
dts_time=0.000000
duration=1024
duration_time=0.021333
convergence_duration=N/A
convergence_duration_time=N/A
size=6
pos=71
flags=K_
[/PACKET]
[PACKET]
codec_type=audio
stream_index=1
pts=1024
pts_time=0.021333
dts=1024
dts_time=0.021333
duration=1024
duration_time=0.021333
convergence_duration=N/A
convergence_duration_time=N/A
size=6
pos=77
flags=K_
[/PACKET]
[PACKET]
codec_type=audio
stream_index=1
pts=2048
pts_time=0.042667
dts=2048
dts_time=0.042667
duration=1024
duration_time=0.021333
convergence_duration=N/A
convergence_duration_time=N/A
size=6
pos=83
flags=K_
[/PACKET]
[PACKET]
codec_type=audio
stream_index=1
pts=3072
pts_time=0.064000
dts=3072
dts_time=0.064000
duration=1024
duration_time=0.021333
convergence_duration=N/A
convergence_duration_time=N/A
size=7
pos=89
flags=K_
[/PACKET]
[PACKET]
codec_type=audio
stream_index=1
pts=4096
pts_time=0.085333
dts=4096
dts_time=0.085333
duration=1024
duration_time=0.021333
convergence_duration=N/A
convergence_duration_time=N/A
size=404
pos=96
flags=K_
[/PACKET]
[PACKET]
codec_type=audio
stream_index=1
pts=5120
pts_time=0.106667
dts=5120
dts_time=0.106667
duration=1024
duration_time=0.021333
convergence_duration=N/A
convergence_duration_time=N/A
size=594
pos=500
flags=K_
[/PACKET]
[PACKET]
codec_type=audio
stream_index=1
pts=6144
pts_time=0.128000
dts=6144
dts_time=0.128000
duration=1024
duration_time=0.021333
convergence_duration=N/A
convergence_duration_time=N/A
size=607
pos=1094
flags=K_
[/PACKET]
[PACKET]
codec_type=audio
stream_index=1
pts=7168
pts_time=0.149333
dts=7168
dts_time=0.149333
duration=1024
duration_time=0.021333
convergence_duration=N/A
convergence_duration_time=N/A
size=578
pos=1701
flags=K_
[/PACKET]
[PACKET]
codec_type=audio
stream_index=1
pts=8192
pts_time=0.170667
dts=8192
dts_time=0.170667
duration=1024
duration_time=0.021333
convergence_duration=N/A
convergence_duration_time=N/A
size=606
pos=2279
flags=K_
[/PACKET]
[PACKET]
codec_type=audio
stream_index=1
pts=9216
pts_time=0.192000
dts=9216
dts_time=0.192000
duration=1024
duration_time=0.021333
convergence_duration=N/A
convergence_duration_time=N/A
size=533
pos=2885
flags=K_
[/PACKET]
[PACKET]
codec_type=audio
stream_index=1
pts=10240
pts_time=0.213333
dts=10240
dts_time=0.213333
duration=1024
duration_time=0.021333
convergence_duration=N/A
convergence_duration_time=N/A
size=545
pos=3418
flags=K_
[/PACKET]
[PACKET]
codec_type=audio
stream_index=1
pts=11264
pts_time=0.234667
dts=11264
dts_time=0.234667
duration=1024
duration_time=0.021333
convergence_duration=N/A
convergence_duration_time=N/A
size=539
pos=3963
flags=K_
[/PACKET]
[PACKET]
codec_type=audio
stream_index=1
pts=12288
pts_time=0.256000
dts=12288
dts_time=0.256000
duration=1024
duration_time=0.021333
convergence_duration=N/A
convergence_duration_time=N/A
size=546
pos=4502
flags=K_
[/PACKET]
[PACKET]
codec_type=audio
stream_index=1
pts=13312
pts_time=0.277333
dts=13312
dts_time=0.277333
duration=1024
duration_time=0.021333
convergence_duration=N/A
convergence_duration_time=N/A
size=512
pos=5048
flags=K_
[/PACKET]
[PACKET]
codec_type=audio
stream_index=1
pts=14336
pts_time=0.298667
dts=14336
dts_time=0.298667
duration=1024
duration_time=0.021333
convergence_duration=N/A
convergence_duration_time=N/A
size=487
pos=420523
flags=K_
[/PACKET]
[PACKET]
codec_type=audio
stream_index=1
pts=15360
pts_time=0.320000
dts=15360
dts_time=0.320000
duration=1024
duration_time=0.021333
convergence_duration=N/A
convergence_duration_time=N/A
size=485
pos=421763
flags=K_
[/PACKET]
[PACKET]
codec_type=audio
stream_index=1
pts=16384
pts_time=0.341333
dts=16384
dts_time=0.341333
duration=992
duration_time=0.020667
convergence_duration=N/A
convergence_duration_time=N/A
size=471
pos=437662
flags=K_
[/PACKET]
[PACKET]
codec_type=video
stream_index=0
pts=122940
pts_time=1.366000
dts=122940
dts_time=1.366000
duration=3000
duration_time=0.033333
convergence_duration=N/A
convergence_duration_time=N/A
size=405066
pos=5560
flags=K_
[/PACKET]
[PACKET]
codec_type=video
stream_index=0
pts=125940
pts_time=1.399333
dts=125940
dts_time=1.399333
duration=3000
duration_time=0.033333
convergence_duration=N/A
convergence_duration_time=N/A
size=9897
pos=410626
flags=__
[/PACKET]
[PACKET]
codec_type=video
stream_index=0
pts=128940
pts_time=1.432667
dts=128940
dts_time=1.432667
duration=3000
duration_time=0.033333
convergence_duration=N/A
convergence_duration_time=N/A
size=753
pos=421010
flags=__
[/PACKET]
[PACKET]
codec_type=video
stream_index=0
pts=131940
pts_time=1.466000
dts=131940
dts_time=1.466000
duration=3000
duration_time=0.033333
convergence_duration=N/A
convergence_duration_time=N/A
size=210
pos=422248
flags=__
[/PACKET]
[PACKET]
codec_type=video
stream_index=0
pts=134940
pts_time=1.499333
dts=134940
dts_time=1.499333
duration=3000
duration_time=0.033333
convergence_duration=N/A
convergence_duration_time=N/A
size=15204
pos=422458
flags=__
[/PACKET]
[PACKET]
codec_type=video
stream_index=0
pts=137940
pts_time=1.532667
dts=137940
dts_time=1.532667
duration=3000
duration_time=0.033333
convergence_duration=N/A
convergence_duration_time=N/A
size=309
pos=438133
flags=__
[/PACKET]
[PACKET]
codec_type=video
stream_index=0
pts=140940
pts_time=1.566000
dts=140940
dts_time=1.566000
duration=3000
duration_time=0.033333
convergence_duration=N/A
convergence_duration_time=N/A
size=30
pos=438442
flags=__
[/PACKET]
[PACKET]
codec_type=video
stream_index=0
pts=143940
pts_time=1.599333
dts=143940
dts_time=1.599333
duration=3000
duration_time=0.033333
convergence_duration=N/A
convergence_duration_time=N/A
size=1067
pos=438472
flags=__
[/PACKET]
[PACKET]
codec_type=video
stream_index=0
pts=146940
pts_time=1.632667
dts=146940
dts_time=1.632667
duration=3000
duration_time=0.033333
convergence_duration=N/A
convergence_duration_time=N/A
size=158
pos=439539
flags=__
[/PACKET]
[PACKET]
codec_type=video
stream_index=0
pts=149940
pts_time=1.666000
dts=149940
dts_time=1.666000
duration=3000
duration_time=0.033333
convergence_duration=N/A
convergence_duration_time=N/A
size=37
pos=439697
flags=__
[/PACKET]
[PACKET]
codec_type=video
stream_index=0
pts=152940
pts_time=1.699333
dts=152940
dts_time=1.699333
duration=3000
duration_time=0.033333
convergence_duration=N/A
convergence_duration_time=N/A
size=480
pos=439734
flags=__
[/PACKET]
[PACKET]
codec_type=video
stream_index=0
pts=155940
pts_time=1.732667
dts=155940
dts_time=1.732667
duration=3000
duration_time=0.033333
convergence_duration=N/A
convergence_duration_time=N/A
size=75
pos=440214
flags=__
[/PACKET]
[PACKET]
codec_type=video
stream_index=0
pts=158940
pts_time=1.766000
dts=158940
dts_time=1.766000
duration=3000
duration_time=0.033333
convergence_duration=N/A
convergence_duration_time=N/A
size=28
pos=440289
flags=__
[/PACKET]
[PACKET]
codec_type=video
stream_index=0
pts=161940
pts_time=1.799333
dts=161940
dts_time=1.799333
duration=3000
duration_time=0.033333
convergence_duration=N/A
convergence_duration_time=N/A
size=241
pos=440317
flags=__
[/PACKET]
[PACKET]
codec_type=video
stream_index=0
pts=164940
pts_time=1.832667
dts=164940
dts_time=1.832667
duration=3000
duration_time=0.033333
convergence_duration=N/A
convergence_duration_time=N/A
size=40
pos=440558
flags=__
[/PACKET]
[PACKET]
codec_type=video
stream_index=0
pts=167940
pts_time=1.866000
dts=167940
dts_time=1.866000
duration=3000
duration_time=0.033333
convergence_duration=N/A
convergence_duration_time=N/A
size=19
pos=440598
flags=__
[/PACKET]
[PACKET]
codec_type=video
stream_index=0
pts=170940
pts_time=1.899333
dts=170940
dts_time=1.899333
duration=3000
duration_time=0.033333
convergence_duration=N/A
convergence_duration_time=N/A
size=90625
pos=440617
flags=__
[/PACKET]
[PACKET]
codec_type=video
stream_index=0
pts=173940
pts_time=1.932667
dts=173940
dts_time=1.932667
duration=3000
duration_time=0.033333
convergence_duration=N/A
convergence_duration_time=N/A
size=169
pos=531242
flags=__
[/PACKET]
[PACKET]
codec_type=video
stream_index=0
pts=176940
pts_time=1.966000
dts=176940
dts_time=1.966000
duration=3000
duration_time=0.033333
convergence_duration=N/A
convergence_duration_time=N/A
size=26
pos=531411
flags=__
[/PACKET]
[PACKET]
codec_type=video
stream_index=0
pts=179940
pts_time=1.999333
dts=179940
dts_time=1.999333
duration=3000
duration_time=0.033333
convergence_duration=N/A
convergence_duration_time=N/A
size=702
pos=531437
flags=__
[/PACKET]
[PACKET]
codec_type=video
stream_index=0
pts=182940
pts_time=2.032667
dts=182940
dts_time=2.032667
duration=3000
duration_time=0.033333
convergence_duration=N/A
convergence_duration_time=N/A
size=117
pos=532139
flags=__
[/PACKET]
[PACKET]
codec_type=video
stream_index=0
pts=185940
pts_time=2.066000
dts=185940
dts_time=2.066000
duration=3000
duration_time=0.033333
convergence_duration=N/A
convergence_duration_time=N/A
size=22
pos=532256
flags=__
[/PACKET]
[PACKET]
codec_type=video
stream_index=0
pts=188940
pts_time=2.099333
dts=188940
dts_time=2.099333
duration=3000
duration_time=0.033333
convergence_duration=N/A
convergence_duration_time=N/A
size=287
pos=532278
flags=__
[/PACKET]
[PACKET]
codec_type=video
stream_index=0
pts=191940
pts_time=2.132667
dts=191940
dts_time=2.132667
duration=3000
duration_time=0.033333
convergence_duration=N/A
convergence_duration_time=N/A
size=61
pos=532565
flags=__
[/PACKET]
[PACKET]
codec_type=video
stream_index=0
pts=194940
pts_time=2.166000
dts=194940
dts_time=2.166000
duration=3000
duration_time=0.033333
convergence_duration=N/A
convergence_duration_time=N/A
size=22
pos=532626
flags=__
[/PACKET]
[PACKET]
codec_type=video
stream_index=0
pts=197940
pts_time=2.199333
dts=197940
dts_time=2.199333
duration=3000
duration_time=0.033333
convergence_duration=N/A
convergence_duration_time=N/A
size=235
pos=532648
flags=__
[/PACKET]
[PACKET]
codec_type=video
stream_index=0
pts=200940
pts_time=2.232667
dts=200940
dts_time=2.232667
duration=3000
duration_time=0.033333
convergence_duration=N/A
convergence_duration_time=N/A
size=38
pos=532883
flags=__
[/PACKET]
[PACKET]
codec_type=video
stream_index=0
pts=203940
pts_time=2.266000
dts=203940
dts_time=2.266000
duration=3000
duration_time=0.033333
convergence_duration=N/A
convergence_duration_time=N/A
size=19
pos=532921
flags=__
[/PACKET]
[PACKET]
codec_type=video
stream_index=0
pts=206940
pts_time=2.299333
dts=206940
dts_time=2.299333
duration=3000
duration_time=0.033333
convergence_duration=N/A
convergence_duration_time=N/A
size=235
pos=532940
flags=__
[/PACKET]
[PACKET]
codec_type=video
stream_index=0
pts=209940
pts_time=2.332667
dts=209940
dts_time=2.332667
duration=3000
duration_time=0.033333
convergence_duration=N/A
convergence_duration_time=N/A
size=39
pos=533175
flags=__
[/PACKET]
[PACKET]
codec_type=video
stream_index=0
pts=212940
pts_time=2.366000
dts=212940
dts_time=2.366000
duration=3000
duration_time=0.033333
convergence_duration=N/A
convergence_duration_time=N/A
size=19
pos=533214
flags=__
[/PACKET]
[PACKET]
codec_type=video
stream_index=0
pts=215940
pts_time=2.399333
dts=215940
dts_time=2.399333
duration=3000
duration_time=0.033333
convergence_duration=N/A
convergence_duration_time=N/A
size=235
pos=533233
flags=__
[/PACKET]
[PACKET]
codec_type=video
stream_index=0
pts=218940
pts_time=2.432667
dts=218940
dts_time=2.432667
duration=3000
duration_time=0.033333
convergence_duration=N/A
convergence_duration_time=N/A
size=38
pos=533468
flags=__
[/PACKET]
[PACKET]
codec_type=video
stream_index=0
pts=221940
pts_time=2.466000
dts=221940
dts_time=2.466000
duration=3000
duration_time=0.033333
convergence_duration=N/A
convergence_duration_time=N/A
size=19
pos=533506
flags=__
[/PACKET]
[PACKET]
codec_type=video
stream_index=0
pts=224940
pts_time=2.499333
dts=224940
dts_time=2.499333
duration=3000
duration_time=0.033333
convergence_duration=N/A
convergence_duration_time=N/A
size=227
pos=533525
flags=__
[/PACKET]
[PACKET]
codec_type=video
stream_index=0
pts=227940
pts_time=2.532667
dts=227940
dts_time=2.532667
duration=3000
duration_time=0.033333
convergence_duration=N/A
convergence_duration_time=N/A
size=39
pos=533752
flags=__
[/PACKET]
[PACKET]
codec_type=video
stream_index=0
pts=230940
pts_time=2.566000
dts=230940
dts_time=2.566000
duration=3000
duration_time=0.033333
convergence_duration=N/A
convergence_duration_time=N/A
size=19
pos=533791
flags=__
[/PACKET]
[PACKET]
codec_type=video
stream_index=0
pts=233940
pts_time=2.599333
dts=233940
dts_time=2.599333
duration=3000
duration_time=0.033333
convergence_duration=N/A
convergence_duration_time=N/A
size=8797
pos=533810
flags=__
[/PACKET]
[PACKET]
codec_type=video
stream_index=0
pts=236940
pts_time=2.632667
dts=236940
dts_time=2.632667
duration=3000
duration_time=0.033333
convergence_duration=N/A
convergence_duration_time=N/A
size=175
pos=542607
flags=__
[/PACKET]
[PACKET]
codec_type=video
stream_index=0
pts=239940
pts_time=2.666000
dts=239940
dts_time=2.666000
duration=3000
duration_time=0.033333
convergence_duration=N/A
convergence_duration_time=N/A
size=142
pos=542782
flags=__
[/PACKET]
[PACKET]
codec_type=video
stream_index=0
pts=242940
pts_time=2.699333
dts=242940
dts_time=2.699333
duration=3000
duration_time=0.033333
convergence_duration=N/A
convergence_duration_time=N/A
size=339
pos=542924
flags=__
[/PACKET]
[PACKET]
codec_type=video
stream_index=0
pts=245940
pts_time=2.732667
dts=245940
dts_time=2.732667
duration=3000
duration_time=0.033333
convergence_duration=N/A
convergence_duration_time=N/A
size=60
pos=543263
flags=__
[/PACKET]
[PACKET]
codec_type=video
stream_index=0
pts=248940
pts_time=2.766000
dts=248940
dts_time=2.766000
duration=3000
duration_time=0.033333
convergence_duration=N/A
convergence_duration_time=N/A
size=19
pos=543323
flags=__
[/PACKET]
[PACKET]
codec_type=video
stream_index=0
pts=251940
pts_time=2.799333
dts=251940
dts_time=2.799333
duration=3000
duration_time=0.033333
convergence_duration=N/A
convergence_duration_time=N/A
size=268
pos=543342
flags=__
[/PACKET]
[PACKET]
codec_type=video
stream_index=0
pts=254940
pts_time=2.832667
dts=254940
dts_time=2.832667
duration=3000
duration_time=0.033333
convergence_duration=N/A
convergence_duration_time=N/A
size=42
pos=543610
flags=__
[/PACKET]
[PACKET]
codec_type=video
stream_index=0
pts=257940
pts_time=2.866000
dts=257940
dts_time=2.866000
duration=3000
duration_time=0.033333
convergence_duration=N/A
convergence_duration_time=N/A
size=19
pos=543652
flags=__
[/PACKET]
[PACKET]
codec_type=video
stream_index=0
pts=260940
pts_time=2.899333
dts=260940
dts_time=2.899333
duration=3000
duration_time=0.033333
convergence_duration=N/A
convergence_duration_time=N/A
size=233
pos=543671
flags=__
[/PACKET]
